<svg xmlns="http://www.w3.org/2000/svg" version="1.1" xmlns:xlink="http://www.w3.org/1999/xlink" xmlns:svgjs="http://svgjs.dev/svgjs" width="1920" height="1080" preserveAspectRatio="none" viewBox="0 0 1920 1080"><g mask="url(&quot;#SvgjsMask1025&quot;)" fill="none"><rect width="1920" height="1080" x="0" y="0" fill="rgba(255, 233, 213, 1)"></rect><path d="M0,876.609C160.61,861.329,260.355,702.888,390.044,606.92C509.722,518.36,668.327,468.863,732.54,334.54C797.04,199.616,747.531,43.548,730.381,-105.013C712.719,-258.01,721.653,-422.233,630.821,-546.61C537.162,-674.859,389.242,-770.355,231.442,-788.218C81.061,-805.241,-39.084,-667.831,-187.705,-639.266C-360.004,-606.15,-566.531,-719.608,-702.497,-608.717C-835.715,-500.067,-836.962,-290.301,-825.923,-118.75C-816.066,34.43,-710.647,155.823,-644.391,294.284C-579.566,429.754,-552.271,585.279,-440.847,685.971C-319.608,795.533,-162.675,892.086,0,876.609" fill="#ffb877"></path><path d="M1920 1725.991C2067.005 1709.906 2215.543 1807.594 2353.7 1754.851 2502.014 1698.23 2645.186 1584.018 2690.46 1431.857 2735.085 1281.877 2637.209 1131.43 2582.85 984.697 2539.082 866.554 2478.0969999999998 762.428 2404.561 660.125 2323.719 547.657 2254.387 422.682 2132.109 357.624 1995.398 284.88699999999994 1836.101 246.87400000000002 1684.172 276.84400000000005 1525.8220000000001 308.081 1388.309 405.76199999999994 1280.261 525.663 1170.8429999999998 647.0840000000001 1079.103 794.636 1070.479 957.857 1062.13 1115.871 1176.995 1245.647 1234.4279999999999 1393.09 1296.153 1551.554 1267.713 1782.654 1420.692 1856.938 1578.673 1933.65 1745.421 1745.0929999999998 1920 1725.991" fill="#ffffff"></path></g><defs><mask id="SvgjsMask1025"><rect width="1920" height="1080" fill="#ffffff"></rect></mask></defs></svg>